<?xml version="1.0" standalone="no"?>
<svg xmlns="http://www.w3.org/2000/svg" width="750" height="826.748046875"><g transform="translate(60,20)"><g class="x axis" transform="translate(0,600)" fill="none" font-size="10" font-family="sans-serif" text-anchor="middle"><path class="domain" stroke="#000" d="M0.5,6V0.5H690.5V6"/><g class="tick" opacity="1" transform="translate(5.492040520984098,0)"><line stroke="#000" y2="6"/><text fill="#000" y="9" dy="-0.5em" dx="-.8em" style="text-anchor: end;" transform="rotate(-90)">Chemotherapy treated CRC patient</text></g><g class="tick" opacity="1" transform="translate(15.477568740955153,0)"><line stroke="#000" y2="6"/><text fill="#000" y="9" dy="-0.5em" dx="-.8em" style="text-anchor: end;" transform="rotate(-90)">Chemotherapy treated CRC patient</text></g><g class="tick" opacity="1" transform="translate(25.463096960926208,0)"><line stroke="#000" y2="6"/><text fill="#000" y="9" dy="-0.5em" dx="-.8em" style="text-anchor: end;" transform="rotate(-90)">Chemotherapy treated CRC patient</text></g><g class="tick" opacity="1" transform="translate(35.44862518089727,0)"><line stroke="#000" y2="6"/><text fill="#000" y="9" dy="-0.5em" dx="-.8em" style="text-anchor: end;" transform="rotate(-90)">Chemotherapy treated CRC patient</text></g><g class="tick" opacity="1" transform="translate(45.43415340086832,0)"><line stroke="#000" y2="6"/><text fill="#000" y="9" dy="-0.5em" dx="-.8em" style="text-anchor: end;" transform="rotate(-90)">Chemotherapy treated CRC patient</text></g><g class="tick" opacity="1" transform="translate(55.41968162083938,0)"><line stroke="#000" y2="6"/><text fill="#000" y="9" dy="-0.5em" dx="-.8em" style="text-anchor: end;" transform="rotate(-90)">Chemotherapy treated CRC patient</text></g><g class="tick" opacity="1" transform="translate(65.40520984081043,0)"><line stroke="#000" y2="6"/><text fill="#000" y="9" dy="-0.5em" dx="-.8em" style="text-anchor: end;" transform="rotate(-90)">Chemotherapy treated CRC patient</text></g><g class="tick" opacity="1" transform="translate(75.39073806078147,0)"><line stroke="#000" y2="6"/><text fill="#000" y="9" dy="-0.5em" dx="-.8em" style="text-anchor: end;" transform="rotate(-90)">Chemotherapy treated CRC patient</text></g><g class="tick" opacity="1" transform="translate(85.37626628075253,0)"><line stroke="#000" y2="6"/><text fill="#000" y="9" dy="-0.5em" dx="-.8em" style="text-anchor: end;" transform="rotate(-90)">Chemotherapy treated CRC patient</text></g><g class="tick" opacity="1" transform="translate(95.36179450072359,0)"><line stroke="#000" y2="6"/><text fill="#000" y="9" dy="-0.5em" dx="-.8em" style="text-anchor: end;" transform="rotate(-90)">Chemotherapy treated CRC patient</text></g><g class="tick" opacity="1" transform="translate(105.34732272069465,0)"><line stroke="#000" y2="6"/><text fill="#000" y="9" dy="-0.5em" dx="-.8em" style="text-anchor: end;" transform="rotate(-90)">Chemotherapy treated CRC patient</text></g><g class="tick" opacity="1" transform="translate(115.33285094066571,0)"><line stroke="#000" y2="6"/><text fill="#000" y="9" dy="-0.5em" dx="-.8em" style="text-anchor: end;" transform="rotate(-90)">Chemotherapy treated CRC patient</text></g><g class="tick" opacity="1" transform="translate(125.31837916063677,0)"><line stroke="#000" y2="6"/><text fill="#000" y="9" dy="-0.5em" dx="-.8em" style="text-anchor: end;" transform="rotate(-90)">Chemotherapy treated CRC patient</text></g><g class="tick" opacity="1" transform="translate(135.3039073806078,0)"><line stroke="#000" y2="6"/><text fill="#000" y="9" dy="-0.5em" dx="-.8em" style="text-anchor: end;" transform="rotate(-90)">Chemotherapy treated CRC patient</text></g><g class="tick" opacity="1" transform="translate(145.28943560057886,0)"><line stroke="#000" y2="6"/><text fill="#000" y="9" dy="-0.5em" dx="-.8em" style="text-anchor: end;" transform="rotate(-90)">CRC patient</text></g><g class="tick" opacity="1" transform="translate(155.2749638205499,0)"><line stroke="#000" y2="6"/><text fill="#000" y="9" dy="-0.5em" dx="-.8em" style="text-anchor: end;" transform="rotate(-90)">CRC patient</text></g><g class="tick" opacity="1" transform="translate(165.26049204052097,0)"><line stroke="#000" y2="6"/><text fill="#000" y="9" dy="-0.5em" dx="-.8em" style="text-anchor: end;" transform="rotate(-90)">CRC patient</text></g><g class="tick" opacity="1" transform="translate(175.24602026049203,0)"><line stroke="#000" y2="6"/><text fill="#000" y="9" dy="-0.5em" dx="-.8em" style="text-anchor: end;" transform="rotate(-90)">CRC patient</text></g><g class="tick" opacity="1" transform="translate(185.2315484804631,0)"><line stroke="#000" y2="6"/><text fill="#000" y="9" dy="-0.5em" dx="-.8em" style="text-anchor: end;" transform="rotate(-90)">CRC patient</text></g><g class="tick" opacity="1" transform="translate(195.21707670043415,0)"><line stroke="#000" y2="6"/><text fill="#000" y="9" dy="-0.5em" dx="-.8em" style="text-anchor: end;" transform="rotate(-90)">CRC patient</text></g><g class="tick" opacity="1" transform="translate(205.2026049204052,0)"><line stroke="#000" y2="6"/><text fill="#000" y="9" dy="-0.5em" dx="-.8em" style="text-anchor: end;" transform="rotate(-90)">CRC patient</text></g><g class="tick" opacity="1" transform="translate(215.18813314037624,0)"><line stroke="#000" y2="6"/><text fill="#000" y="9" dy="-0.5em" dx="-.8em" style="text-anchor: end;" transform="rotate(-90)">CRC patient</text></g><g class="tick" opacity="1" transform="translate(225.1736613603473,0)"><line stroke="#000" y2="6"/><text fill="#000" y="9" dy="-0.5em" dx="-.8em" style="text-anchor: end;" transform="rotate(-90)">CRC patient</text></g><g class="tick" opacity="1" transform="translate(235.15918958031835,0)"><line stroke="#000" y2="6"/><text fill="#000" y="9" dy="-0.5em" dx="-.8em" style="text-anchor: end;" transform="rotate(-90)">CRC patient</text></g><g class="tick" opacity="1" transform="translate(245.1447178002894,0)"><line stroke="#000" y2="6"/><text fill="#000" y="9" dy="-0.5em" dx="-.8em" style="text-anchor: end;" transform="rotate(-90)">CRC patient</text></g><g class="tick" opacity="1" transform="translate(255.13024602026047,0)"><line stroke="#000" y2="6"/><text fill="#000" y="9" dy="-0.5em" dx="-.8em" style="text-anchor: end;" transform="rotate(-90)">CRC patient</text></g><g class="tick" opacity="1" transform="translate(265.11577424023153,0)"><line stroke="#000" y2="6"/><text fill="#000" y="9" dy="-0.5em" dx="-.8em" style="text-anchor: end;" transform="rotate(-90)">CRC patient</text></g><g class="tick" opacity="1" transform="translate(275.1013024602026,0)"><line stroke="#000" y2="6"/><text fill="#000" y="9" dy="-0.5em" dx="-.8em" style="text-anchor: end;" transform="rotate(-90)">CRC patient</text></g><g class="tick" opacity="1" transform="translate(285.08683068017365,0)"><line stroke="#000" y2="6"/><text fill="#000" y="9" dy="-0.5em" dx="-.8em" style="text-anchor: end;" transform="rotate(-90)">CRC patient</text></g><g class="tick" opacity="1" transform="translate(295.0723589001447,0)"><line stroke="#000" y2="6"/><text fill="#000" y="9" dy="-0.5em" dx="-.8em" style="text-anchor: end;" transform="rotate(-90)">CRC patient</text></g><g class="tick" opacity="1" transform="translate(305.05788712011577,0)"><line stroke="#000" y2="6"/><text fill="#000" y="9" dy="-0.5em" dx="-.8em" style="text-anchor: end;" transform="rotate(-90)">CRC patient</text></g><g class="tick" opacity="1" transform="translate(315.0434153400868,0)"><line stroke="#000" y2="6"/><text fill="#000" y="9" dy="-0.5em" dx="-.8em" style="text-anchor: end;" transform="rotate(-90)">Healthy individual</text></g><g class="tick" opacity="1" transform="translate(325.0289435600579,0)"><line stroke="#000" y2="6"/><text fill="#000" y="9" dy="-0.5em" dx="-.8em" style="text-anchor: end;" transform="rotate(-90)">Healthy individual</text></g><g class="tick" opacity="1" transform="translate(335.01447178002894,0)"><line stroke="#000" y2="6"/><text fill="#000" y="9" dy="-0.5em" dx="-.8em" style="text-anchor: end;" transform="rotate(-90)">Healthy individual</text></g><g class="tick" opacity="1" transform="translate(345,0)"><line stroke="#000" y2="6"/><text fill="#000" y="9" dy="-0.5em" dx="-.8em" style="text-anchor: end;" transform="rotate(-90)">Healthy individual</text></g><g class="tick" opacity="1" transform="translate(354.98552821997106,0)"><line stroke="#000" y2="6"/><text fill="#000" y="9" dy="-0.5em" dx="-.8em" style="text-anchor: end;" transform="rotate(-90)">Healthy individual</text></g><g class="tick" opacity="1" transform="translate(364.9710564399421,0)"><line stroke="#000" y2="6"/><text fill="#000" y="9" dy="-0.5em" dx="-.8em" style="text-anchor: end;" transform="rotate(-90)">Healthy individual</text></g><g class="tick" opacity="1" transform="translate(374.9565846599132,0)"><line stroke="#000" y2="6"/><text fill="#000" y="9" dy="-0.5em" dx="-.8em" style="text-anchor: end;" transform="rotate(-90)">Healthy individual</text></g><g class="tick" opacity="1" transform="translate(384.94211287988423,0)"><line stroke="#000" y2="6"/><text fill="#000" y="9" dy="-0.5em" dx="-.8em" style="text-anchor: end;" transform="rotate(-90)">Healthy individual</text></g><g class="tick" opacity="1" transform="translate(394.9276410998553,0)"><line stroke="#000" y2="6"/><text fill="#000" y="9" dy="-0.5em" dx="-.8em" style="text-anchor: end;" transform="rotate(-90)">Healthy individual</text></g><g class="tick" opacity="1" transform="translate(404.91316931982635,0)"><line stroke="#000" y2="6"/><text fill="#000" y="9" dy="-0.5em" dx="-.8em" style="text-anchor: end;" transform="rotate(-90)">Healthy individual</text></g><g class="tick" opacity="1" transform="translate(414.89869753979735,0)"><line stroke="#000" y2="6"/><text fill="#000" y="9" dy="-0.5em" dx="-.8em" style="text-anchor: end;" transform="rotate(-90)">Healthy individual</text></g><g class="tick" opacity="1" transform="translate(424.8842257597684,0)"><line stroke="#000" y2="6"/><text fill="#000" y="9" dy="-0.5em" dx="-.8em" style="text-anchor: end;" transform="rotate(-90)">Healthy individual</text></g><g class="tick" opacity="1" transform="translate(434.86975397973947,0)"><line stroke="#000" y2="6"/><text fill="#000" y="9" dy="-0.5em" dx="-.8em" style="text-anchor: end;" transform="rotate(-90)">Healthy individual</text></g><g class="tick" opacity="1" transform="translate(444.85528219971053,0)"><line stroke="#000" y2="6"/><text fill="#000" y="9" dy="-0.5em" dx="-.8em" style="text-anchor: end;" transform="rotate(-90)">Healthy individual</text></g><g class="tick" opacity="1" transform="translate(454.8408104196816,0)"><line stroke="#000" y2="6"/><text fill="#000" y="9" dy="-0.5em" dx="-.8em" style="text-anchor: end;" transform="rotate(-90)">Healthy individual</text></g><g class="tick" opacity="1" transform="translate(464.82633863965265,0)"><line stroke="#000" y2="6"/><text fill="#000" y="9" dy="-0.5em" dx="-.8em" style="text-anchor: end;" transform="rotate(-90)">Healthy individual</text></g><g class="tick" opacity="1" transform="translate(474.8118668596237,0)"><line stroke="#000" y2="6"/><text fill="#000" y="9" dy="-0.5em" dx="-.8em" style="text-anchor: end;" transform="rotate(-90)">Healthy individual</text></g><g class="tick" opacity="1" transform="translate(484.79739507959476,0)"><line stroke="#000" y2="6"/><text fill="#000" y="9" dy="-0.5em" dx="-.8em" style="text-anchor: end;" transform="rotate(-90)">Healthy individual</text></g><g class="tick" opacity="1" transform="translate(494.7829232995658,0)"><line stroke="#000" y2="6"/><text fill="#000" y="9" dy="-0.5em" dx="-.8em" style="text-anchor: end;" transform="rotate(-90)">Healthy individual</text></g><g class="tick" opacity="1" transform="translate(504.7684515195369,0)"><line stroke="#000" y2="6"/><text fill="#000" y="9" dy="-0.5em" dx="-.8em" style="text-anchor: end;" transform="rotate(-90)">Healthy individual</text></g><g class="tick" opacity="1" transform="translate(514.7539797395079,0)"><line stroke="#000" y2="6"/><text fill="#000" y="9" dy="-0.5em" dx="-.8em" style="text-anchor: end;" transform="rotate(-90)">Healthy individual</text></g><g class="tick" opacity="1" transform="translate(524.7395079594789,0)"><line stroke="#000" y2="6"/><text fill="#000" y="9" dy="-0.5em" dx="-.8em" style="text-anchor: end;" transform="rotate(-90)">Healthy individual</text></g><g class="tick" opacity="1" transform="translate(534.7250361794501,0)"><line stroke="#000" y2="6"/><text fill="#000" y="9" dy="-0.5em" dx="-.8em" style="text-anchor: end;" transform="rotate(-90)">Healthy individual</text></g><g class="tick" opacity="1" transform="translate(544.7105643994211,0)"><line stroke="#000" y2="6"/><text fill="#000" y="9" dy="-0.5em" dx="-.8em" style="text-anchor: end;" transform="rotate(-90)">Healthy individual</text></g><g class="tick" opacity="1" transform="translate(554.6960926193922,0)"><line stroke="#000" y2="6"/><text fill="#000" y="9" dy="-0.5em" dx="-.8em" style="text-anchor: end;" transform="rotate(-90)">Healthy individual</text></g><g class="tick" opacity="1" transform="translate(564.6816208393632,0)"><line stroke="#000" y2="6"/><text fill="#000" y="9" dy="-0.5em" dx="-.8em" style="text-anchor: end;" transform="rotate(-90)">Healthy individual</text></g><g class="tick" opacity="1" transform="translate(574.6671490593343,0)"><line stroke="#000" y2="6"/><text fill="#000" y="9" dy="-0.5em" dx="-.8em" style="text-anchor: end;" transform="rotate(-90)">Healthy individual</text></g><g class="tick" opacity="1" transform="translate(584.6526772793053,0)"><line stroke="#000" y2="6"/><text fill="#000" y="9" dy="-0.5em" dx="-.8em" style="text-anchor: end;" transform="rotate(-90)">Healthy individual</text></g><g class="tick" opacity="1" transform="translate(594.6382054992764,0)"><line stroke="#000" y2="6"/><text fill="#000" y="9" dy="-0.5em" dx="-.8em" style="text-anchor: end;" transform="rotate(-90)">Healthy individual</text></g><g class="tick" opacity="1" transform="translate(604.6237337192474,0)"><line stroke="#000" y2="6"/><text fill="#000" y="9" dy="-0.5em" dx="-.8em" style="text-anchor: end;" transform="rotate(-90)">Healthy individual</text></g><g class="tick" opacity="1" transform="translate(614.6092619392185,0)"><line stroke="#000" y2="6"/><text fill="#000" y="9" dy="-0.5em" dx="-.8em" style="text-anchor: end;" transform="rotate(-90)">Healthy individual</text></g><g class="tick" opacity="1" transform="translate(624.5947901591895,0)"><line stroke="#000" y2="6"/><text fill="#000" y="9" dy="-0.5em" dx="-.8em" style="text-anchor: end;" transform="rotate(-90)">Healthy individual</text></g><g class="tick" opacity="1" transform="translate(634.5803183791606,0)"><line stroke="#000" y2="6"/><text fill="#000" y="9" dy="-0.5em" dx="-.8em" style="text-anchor: end;" transform="rotate(-90)">Healthy individual</text></g><g class="tick" opacity="1" transform="translate(644.5658465991316,0)"><line stroke="#000" y2="6"/><text fill="#000" y="9" dy="-0.5em" dx="-.8em" style="text-anchor: end;" transform="rotate(-90)">Surgically treated DRD patients</text></g><g class="tick" opacity="1" transform="translate(654.5513748191026,0)"><line stroke="#000" y2="6"/><text fill="#000" y="9" dy="-0.5em" dx="-.8em" style="text-anchor: end;" transform="rotate(-90)">Surgically treated DRD patients</text></g><g class="tick" opacity="1" transform="translate(664.5369030390738,0)"><line stroke="#000" y2="6"/><text fill="#000" y="9" dy="-0.5em" dx="-.8em" style="text-anchor: end;" transform="rotate(-90)">Surgically treated DRD patients</text></g><g class="tick" opacity="1" transform="translate(674.5224312590448,0)"><line stroke="#000" y2="6"/><text fill="#000" y="9" dy="-0.5em" dx="-.8em" style="text-anchor: end;" transform="rotate(-90)">Surgically treated DRD patients</text></g><g class="tick" opacity="1" transform="translate(684.5079594790159,0)"><line stroke="#000" y2="6"/><text fill="#000" y="9" dy="-0.5em" dx="-.8em" style="text-anchor: end;" transform="rotate(-90)">Surgically treated DRD patients</text></g></g><g class="y axis" fill="none" font-size="10" font-family="sans-serif" text-anchor="end"><path class="domain" stroke="#000" d="M-6,600.5H0.5V0.5H-6"/><g class="tick" opacity="1" transform="translate(0,600.5)"><line stroke="#000" x2="-6"/><text fill="#000" x="-9" dy="0.32em">0%</text></g><g class="tick" opacity="1" transform="translate(0,540.5)"><line stroke="#000" x2="-6"/><text fill="#000" x="-9" dy="0.32em">10%</text></g><g class="tick" opacity="1" transform="translate(0,480.5)"><line stroke="#000" x2="-6"/><text fill="#000" x="-9" dy="0.32em">20%</text></g><g class="tick" opacity="1" transform="translate(0,420.5)"><line stroke="#000" x2="-6"/><text fill="#000" x="-9" dy="0.32em">30%</text></g><g class="tick" opacity="1" transform="translate(0,360.5)"><line stroke="#000" x2="-6"/><text fill="#000" x="-9" dy="0.32em">40%</text></g><g class="tick" opacity="1" transform="translate(0,300.5)"><line stroke="#000" x2="-6"/><text fill="#000" x="-9" dy="0.32em">50%</text></g><g class="tick" opacity="1" transform="translate(0,240.5)"><line stroke="#000" x2="-6"/><text fill="#000" x="-9" dy="0.32em">60%</text></g><g class="tick" opacity="1" transform="translate(0,180.5)"><line stroke="#000" x2="-6"/><text fill="#000" x="-9" dy="0.32em">70%</text></g><g class="tick" opacity="1" transform="translate(0,120.5)"><line stroke="#000" x2="-6"/><text fill="#000" x="-9" dy="0.32em">80%</text></g><g class="tick" opacity="1" transform="translate(0,60.5)"><line stroke="#000" x2="-6"/><text fill="#000" x="-9" dy="0.32em">90%</text></g><g class="tick" opacity="1" transform="translate(0,0.5)"><line stroke="#000" x2="-6"/><text fill="#000" x="-9" dy="0.32em">100%</text></g></g><text id="y-label" text-anchor="middle" style="font: 12px sans-serif;" transform="translate(-30,300)rotate(-90)">Relative Frequency</text><text id="x-label" text-anchor="middle" style="font: 12px sans-serif;" transform="translate(345,786.748046875)">Sample</text><g class="layer" style="fill: rgb(127, 201, 127);"><rect x="140.7959479015919" y="600" height="0" width="8.98697539797395"/><rect x="640.0723589001446" y="600" height="0" width="8.98697539797395"/><rect x="650.0578871201157" y="600" height="0" width="8.98697539797395"/><rect x="660.0434153400868" y="600" height="0" width="8.98697539797395"/><rect x="670.0289435600578" y="600" height="0" width="8.98697539797395"/><rect x="150.78147612156295" y="600" height="0" width="8.98697539797395"/><rect x="0.9985528219971229" y="600" height="0" width="8.98697539797395"/><rect x="310.5499276410998" y="600" height="0" width="8.98697539797395"/><rect x="320.5354558610709" y="600" height="0" width="8.98697539797395"/><rect x="160.767004341534" y="600" height="0" width="8.98697539797395"/><rect x="170.75253256150506" y="600" height="0" width="8.98697539797395"/><rect x="330.52098408104195" y="600" height="0" width="8.98697539797395"/><rect x="340.506512301013" y="600" height="0" width="8.98697539797395"/><rect x="180.73806078147612" y="600" height="0" width="8.98697539797395"/><rect x="350.49204052098406" y="600" height="0" width="8.98697539797395"/><rect x="10.984081041968178" y="600" height="0" width="8.98697539797395"/><rect x="20.969609261939233" y="600" height="0" width="8.98697539797395"/><rect x="190.72358900144718" y="600" height="0" width="8.98697539797395"/><rect x="30.95513748191029" y="600" height="0" width="8.98697539797395"/><rect x="360.4775687409551" y="600" height="0" width="8.98697539797395"/><rect x="200.70911722141824" y="600" height="0" width="8.98697539797395"/><rect x="40.94066570188134" y="600" height="0" width="8.98697539797395"/><rect x="50.9261939218524" y="600" height="0" width="8.98697539797395"/><rect x="370.4630969609262" y="600" height="0" width="8.98697539797395"/><rect x="380.44862518089724" y="600" height="0" width="8.98697539797395"/><rect x="60.911722141823454" y="600" height="0" width="8.98697539797395"/><rect x="390.4341534008683" y="597.0662620131512" height="2.9337379868487687" width="8.98697539797395"/><rect x="210.69464544138927" y="600" height="0" width="8.98697539797395"/><rect x="400.41968162083936" y="600" height="0" width="8.98697539797395"/><rect x="410.40520984081036" y="600" height="0" width="8.98697539797395"/><rect x="680.0144717800289" y="600" height="0" width="8.98697539797395"/><rect x="220.68017366136033" y="600" height="0" width="8.98697539797395"/><rect x="230.6657018813314" y="600" height="0" width="8.98697539797395"/><rect x="420.3907380607814" y="600" height="0" width="8.98697539797395"/><rect x="70.8972503617945" y="600" height="0" width="8.98697539797395"/><rect x="80.88277858176556" y="600" height="0" width="8.98697539797395"/><rect x="430.3762662807525" y="600" height="0" width="8.98697539797395"/><rect x="240.65123010130245" y="600" height="0" width="8.98697539797395"/><rect x="440.36179450072353" y="600" height="0" width="8.98697539797395"/><rect x="450.3473227206946" y="600" height="0" width="8.98697539797395"/><rect x="460.33285094066565" y="600" height="0" width="8.98697539797395"/><rect x="90.86830680173662" y="600" height="0" width="8.98697539797395"/><rect x="470.3183791606367" y="600" height="0" width="8.98697539797395"/><rect x="250.6367583212735" y="600" height="0" width="8.98697539797395"/><rect x="260.62228654124453" y="600" height="0" width="8.98697539797395"/><rect x="100.85383502170768" y="600" height="0" width="8.98697539797395"/><rect x="480.30390738060777" y="600" height="0" width="8.98697539797395"/><rect x="490.2894356005788" y="600" height="0" width="8.98697539797395"/><rect x="270.6078147612156" y="597.9635129401782" height="2.036487059821752" width="8.98697539797395"/><rect x="500.2749638205499" y="600" height="0" width="8.98697539797395"/><rect x="510.26049204052094" y="600" height="0" width="8.98697539797395"/><rect x="520.246020260492" y="600" height="0" width="8.98697539797395"/><rect x="530.2315484804631" y="600" height="0" width="8.98697539797395"/><rect x="280.59334298118665" y="600" height="0" width="8.98697539797395"/><rect x="540.2170767004341" y="600" height="0" width="8.98697539797395"/><rect x="110.83936324167873" y="600" height="0" width="8.98697539797395"/><rect x="550.2026049204052" y="600" height="0" width="8.98697539797395"/><rect x="560.1881331403762" y="600" height="0" width="8.98697539797395"/><rect x="570.1736613603473" y="600" height="0" width="8.98697539797395"/><rect x="580.1591895803183" y="600" height="0" width="8.98697539797395"/><rect x="590.1447178002894" y="600" height="0" width="8.98697539797395"/><rect x="120.82489146164978" y="600" height="0" width="8.98697539797395"/><rect x="130.81041968162083" y="600" height="0" width="8.98697539797395"/><rect x="600.1302460202604" y="600" height="0" width="8.98697539797395"/><rect x="290.5788712011577" y="600" height="0" width="8.98697539797395"/><rect x="610.1157742402315" y="600" height="0" width="8.98697539797395"/><rect x="620.1013024602025" y="600" height="0" width="8.98697539797395"/><rect x="630.0868306801736" y="600" height="0" width="8.98697539797395"/><rect x="300.56439942112877" y="600" height="0" width="8.98697539797395"/></g><g class="layer" style="fill: rgb(240, 2, 127);"><rect x="140.7959479015919" y="597.7449579164681" height="2.255042083531862" width="8.98697539797395"/><rect x="640.0723589001446" y="600" height="0" width="8.98697539797395"/><rect x="650.0578871201157" y="600" height="0" width="8.98697539797395"/><rect x="660.0434153400868" y="600" height="0" width="8.98697539797395"/><rect x="670.0289435600578" y="600" height="0" width="8.98697539797395"/><rect x="150.78147612156295" y="593.2225913621262" height="6.777408637873805" width="8.98697539797395"/><rect x="0.9985528219971229" y="581.5039701074264" height="0.9341429238673982" width="8.98697539797395"/><rect x="310.5499276410998" y="600" height="0" width="8.98697539797395"/><rect x="320.5354558610709" y="600" height="0" width="8.98697539797395"/><rect x="160.767004341534" y="594.1970310391363" height="3.9136302294197094" width="8.98697539797395"/><rect x="170.75253256150506" y="598.5735897990058" height="1.4264102009941553" width="8.98697539797395"/><rect x="330.52098408104195" y="596.1448048895157" height="1.4574518100611158" width="8.98697539797395"/><rect x="340.506512301013" y="598.1386970879615" height="1.1407985589913778" width="8.98697539797395"/><rect x="180.73806078147612" y="595.3439153439153" height="4.6560846560846585" width="8.98697539797395"/><rect x="350.49204052098406" y="599.040365575019" height="0.9596344249810045" width="8.98697539797395"/><rect x="10.984081041968178" y="597.5720789074355" height="2.4279210925644747" width="8.98697539797395"/><rect x="20.969609261939233" y="589.8745519713261" height="8.60215053763443" width="8.98697539797395"/><rect x="190.72358900144718" y="593.7072503419972" height="5.289557683538533" width="8.98697539797395"/><rect x="30.95513748191029" y="574.1748894181694" height="0" width="8.98697539797395"/><rect x="360.4775687409551" y="599.4839026787909" height="0.5160973212091449" width="8.98697539797395"/><rect x="200.70911722141824" y="590.6970362239298" height="2.3051591657518884" width="8.98697539797395"/><rect x="40.94066570188134" y="589.127199509761" height="4.307099711109231" width="8.98697539797395"/><rect x="50.9261939218524" y="596.1038961038961" height="1.9480519480520115" width="8.98697539797395"/><rect x="370.4630969609262" y="596.5239781139363" height="2.1242355970389326" width="8.98697539797395"/><rect x="380.44862518089724" y="594.7816003092385" height="1.0436799381523088" width="8.98697539797395"/><rect x="60.911722141823454" y="598.9076464746772" height="0" width="8.98697539797395"/><rect x="390.4341534008683" y="591.5022761760242" height="2.1750126454223846" width="8.98697539797395"/><rect x="210.69464544138927" y="596.779604159678" height="1.9121100301911156" width="8.98697539797395"/><rect x="400.41968162083936" y="591.8140474987367" height="6.518443658413389" width="8.98697539797395"/><rect x="410.40520984081036" y="598.6688031554296" height="1.3311968445703997" width="8.98697539797395"/><rect x="680.0144717800289" y="585.7810243778137" height="12.893909793595526" width="8.98697539797395"/><rect x="220.68017366136033" y="600" height="0" width="8.98697539797395"/><rect x="230.6657018813314" y="599.2117117117117" height="0.7882882882882996" width="8.98697539797395"/><rect x="420.3907380607814" y="598.948905109489" height="1.0510948905109672" width="8.98697539797395"/><rect x="70.8972503617945" y="594.544714343873" height="0.5699552178042495" width="8.98697539797395"/><rect x="80.88277858176556" y="593.1348783089305" height="3.665276835062514" width="8.98697539797395"/><rect x="430.3762662807525" y="598.3742285112148" height="1.6257714887851762" width="8.98697539797395"/><rect x="240.65123010130245" y="600" height="0" width="8.98697539797395"/><rect x="440.36179450072353" y="597.9715044675199" height="1.2315865732914517" width="8.98697539797395"/><rect x="450.3473227206946" y="600" height="0" width="8.98697539797395"/><rect x="460.33285094066565" y="599.0536277602523" height="0.9463722397476886" width="8.98697539797395"/><rect x="90.86830680173662" y="592.5117004680187" height="0" width="8.98697539797395"/><rect x="470.3183791606367" y="597.4195133939543" height="2.5804866060457243" width="8.98697539797395"/><rect x="250.6367583212735" y="594.5797537862014" height="0.9033743689664107" width="8.98697539797395"/><rect x="260.62228654124453" y="596.7097355769231" height="1.5324519230769056" width="8.98697539797395"/><rect x="100.85383502170768" y="599.0136214185063" height="0" width="8.98697539797395"/><rect x="480.30390738060777" y="600" height="0" width="8.98697539797395"/><rect x="490.2894356005788" y="595.933824995017" height="4.066175004983052" width="8.98697539797395"/><rect x="270.6078147612156" y="595.3669919389054" height="2.3419601187951002" width="8.98697539797395"/><rect x="500.2749638205499" y="599.2898644286637" height="0.7101355713363091" width="8.98697539797395"/><rect x="510.26049204052094" y="599.0532544378698" height="0.9467455621302179" width="8.98697539797395"/><rect x="520.246020260492" y="599.3561540937869" height="0.6438459062130732" width="8.98697539797395"/><rect x="530.2315484804631" y="598.4263362575743" height="0" width="8.98697539797395"/><rect x="280.59334298118665" y="599.617184176946" height="0.3828158230539884" width="8.98697539797395"/><rect x="540.2170767004341" y="598.1927710843373" height="1.6006884681584097" width="8.98697539797395"/><rect x="110.83936324167873" y="596.5948220890192" height="0.8417293712536775" width="8.98697539797395"/><rect x="550.2026049204052" y="598.559193148163" height="1.44080685183701" width="8.98697539797395"/><rect x="560.1881331403762" y="599.097442754471" height="0.9025572455290103" width="8.98697539797395"/><rect x="570.1736613603473" y="600" height="0" width="8.98697539797395"/><rect x="580.1591895803183" y="599.3727323042863" height="0.6272676957137264" width="8.98697539797395"/><rect x="590.1447178002894" y="598.9551589029169" height="0" width="8.98697539797395"/><rect x="120.82489146164978" y="597.66980664353" height="2.3301933564699766" width="8.98697539797395"/><rect x="130.81041968162083" y="599.8134908299658" height="0.18650917003424183" width="8.98697539797395"/><rect x="600.1302460202604" y="600" height="0" width="8.98697539797395"/><rect x="290.5788712011577" y="599.0762914813548" height="0.923708518645185" width="8.98697539797395"/><rect x="610.1157742402315" y="597.5753947466886" height="2.42460525331137" width="8.98697539797395"/><rect x="620.1013024602025" y="597.3122293564282" height="0" width="8.98697539797395"/><rect x="630.0868306801736" y="599.2764417961268" height="0.7235582038731536" width="8.98697539797395"/><rect x="300.56439942112877" y="594.770206022187" height="0" width="8.98697539797395"/></g><g class="layer" style="fill: rgb(253, 192, 134);"><rect x="140.7959479015919" y="0" height="0" width="8.98697539797395"/><rect x="640.0723589001446" y="0" height="0" width="8.98697539797395"/><rect x="650.0578871201157" y="0" height="0" width="8.98697539797395"/><rect x="660.0434153400868" y="1.1368683772161603e-13" height="45.89519650655018" width="8.98697539797395"/><rect x="670.0289435600578" y="0" height="61.80281172470825" width="8.98697539797395"/><rect x="150.78147612156295" y="0" height="128.05315614617945" width="8.98697539797395"/><rect x="0.9985528219971229" y="0" height="145.2592246613732" width="8.98697539797395"/><rect x="310.5499276410998" y="0" height="148.81889763779526" width="8.98697539797395"/><rect x="320.5354558610709" y="0" height="170.08954086492668" width="8.98697539797395"/><rect x="160.767004341534" y="0" height="171.83985605038237" width="8.98697539797395"/><rect x="170.75253256150506" y="0" height="175.4484547222823" width="8.98697539797395"/><rect x="330.52098408104195" y="0" height="193.41795956746586" width="8.98697539797395"/><rect x="340.506512301013" y="0" height="207.32512758931256" width="8.98697539797395"/><rect x="180.73806078147612" y="0" height="220.4232804232804" width="8.98697539797395"/><rect x="350.49204052098406" y="0" height="224.82863670982482" width="8.98697539797395"/><rect x="10.984081041968178" y="0" height="229.86342943854328" width="8.98697539797395"/><rect x="20.969609261939233" y="0" height="236.91756272401432" width="8.98697539797395"/><rect x="190.72358900144718" y="0" height="239.85408116735067" width="8.98697539797395"/><rect x="30.95513748191029" y="0" height="253.35148009527046" width="8.98697539797395"/><rect x="360.4775687409551" y="0" height="273.6790366183337" width="8.98697539797395"/><rect x="200.70911722141824" y="0" height="274.39626783754113" width="8.98697539797395"/><rect x="40.94066570188134" y="0" height="282.2200822901164" width="8.98697539797395"/><rect x="50.9261939218524" y="0" height="290.37433155080214" width="8.98697539797395"/><rect x="370.4630969609262" y="0" height="291.98583842935307" width="8.98697539797395"/><rect x="380.44862518089724" y="0" height="294.6076536528798" width="8.98697539797395"/><rect x="60.911722141823454" y="0" height="296.32571996027804" width="8.98697539797395"/><rect x="390.4341534008683" y="0" height="304.7040971168437" width="8.98697539797395"/><rect x="210.69464544138927" y="0" height="306.23951694062396" width="8.98697539797395"/><rect x="400.41968162083936" y="0" height="308.4133400707428" width="8.98697539797395"/><rect x="410.40520984081036" y="0" height="317.26858128928876" width="8.98697539797395"/><rect x="680.0144717800289" y="0" height="321.02267901129704" width="8.98697539797395"/><rect x="220.68017366136033" y="0" height="321.2750716332378" width="8.98697539797395"/><rect x="230.6657018813314" y="0" height="323.64864864864865" width="8.98697539797395"/><rect x="420.3907380607814" y="0" height="325.7810218978102" width="8.98697539797395"/><rect x="70.8972503617945" y="0" height="326.4214954539286" width="8.98697539797395"/><rect x="80.88277858176556" y="0" height="332.66750702996217" width="8.98697539797395"/><rect x="430.3762662807525" y="0" height="342.40553966581365" width="8.98697539797395"/><rect x="240.65123010130245" y="0" height="342.73587985635" width="8.98697539797395"/><rect x="440.36179450072353" y="0" height="342.8881912581502" width="8.98697539797395"/><rect x="450.3473227206946" y="0" height="344.8264462809918" width="8.98697539797395"/><rect x="460.33285094066565" y="0" height="349.60982898887596" width="8.98697539797395"/><rect x="90.86830680173662" y="0" height="354.8166926677067" width="8.98697539797395"/><rect x="470.3183791606367" y="0" height="355.9596952568199" width="8.98697539797395"/><rect x="250.6367583212735" y="0" height="356.8328757417412" width="8.98697539797395"/><rect x="260.62228654124453" y="0" height="357.9176682692308" width="8.98697539797395"/><rect x="100.85383502170768" y="0" height="367.7078440582433" width="8.98697539797395"/><rect x="480.30390738060777" y="0" height="377.0576131687243" width="8.98697539797395"/><rect x="490.2894356005788" y="0" height="377.91508869842534" width="8.98697539797395"/><rect x="270.6078147612156" y="0" height="380.41578277471365" width="8.98697539797395"/><rect x="500.2749638205499" y="0" height="380.95545513234345" width="8.98697539797395"/><rect x="510.26049204052094" y="0" height="385.7988165680473" width="8.98697539797395"/><rect x="520.246020260492" y="0" height="389.9130808026612" width="8.98697539797395"/><rect x="530.2315484804631" y="0" height="405.95098127882795" width="8.98697539797395"/><rect x="280.59334298118665" y="0" height="415.3551680136112" width="8.98697539797395"/><rect x="540.2170767004341" y="0" height="417.67641996557654" width="8.98697539797395"/><rect x="110.83936324167873" y="0" height="423.61943629639075" width="8.98697539797395"/><rect x="550.2026049204052" y="0" height="429.0722804770671" width="8.98697539797395"/><rect x="560.1881331403762" y="0" height="429.1158281798429" width="8.98697539797395"/><rect x="570.1736613603473" y="0" height="433.7862502534983" width="8.98697539797395"/><rect x="580.1591895803183" y="0" height="448.5333005350225" width="8.98697539797395"/><rect x="590.1447178002894" y="0" height="448.75925119721376" width="8.98697539797395"/><rect x="120.82489146164978" y="0" height="451.0659395141299" width="8.98697539797395"/><rect x="130.81041968162083" y="0" height="459.3720857942182" width="8.98697539797395"/><rect x="600.1302460202604" y="0" height="470.6487567876536" width="8.98697539797395"/><rect x="290.5788712011577" y="0" height="472.2203215874102" width="8.98697539797395"/><rect x="610.1157742402315" y="0" height="472.3490234228841" width="8.98697539797395"/><rect x="620.1013024602025" y="0" height="474.61549947737797" width="8.98697539797395"/><rect x="630.0868306801736" y="0" height="479.5914024260481" width="8.98697539797395"/><rect x="300.56439942112877" y="0" height="483.28050713153726" width="8.98697539797395"/></g><g class="layer" style="fill: rgb(56, 108, 176);"><rect x="140.7959479015919" y="600" height="0" width="8.98697539797395"/><rect x="640.0723589001446" y="600" height="0" width="8.98697539797395"/><rect x="650.0578871201157" y="600" height="0" width="8.98697539797395"/><rect x="660.0434153400868" y="600" height="0" width="8.98697539797395"/><rect x="670.0289435600578" y="600" height="0" width="8.98697539797395"/><rect x="150.78147612156295" y="600" height="0" width="8.98697539797395"/><rect x="0.9985528219971229" y="582.4381130312938" height="0" width="8.98697539797395"/><rect x="310.5499276410998" y="600" height="0" width="8.98697539797395"/><rect x="320.5354558610709" y="600" height="0" width="8.98697539797395"/><rect x="160.767004341534" y="598.110661268556" height="0" width="8.98697539797395"/><rect x="170.75253256150506" y="600" height="0" width="8.98697539797395"/><rect x="330.52098408104195" y="597.6022566995769" height="2.3977433004231443" width="8.98697539797395"/><rect x="340.506512301013" y="599.2794956469529" height="0" width="8.98697539797395"/><rect x="180.73806078147612" y="600" height="0" width="8.98697539797395"/><rect x="350.49204052098406" y="600" height="0" width="8.98697539797395"/><rect x="10.984081041968178" y="600" height="0" width="8.98697539797395"/><rect x="20.969609261939233" y="598.4767025089606" height="0" width="8.98697539797395"/><rect x="190.72358900144718" y="598.9968080255358" height="0" width="8.98697539797395"/><rect x="30.95513748191029" y="574.1748894181694" height="24.39605307927866" width="8.98697539797395"/><rect x="360.4775687409551" y="600" height="0" width="8.98697539797395"/><rect x="200.70911722141824" y="593.0021953896817" height="0" width="8.98697539797395"/><rect x="40.94066570188134" y="593.4342992208702" height="0.5252560623302998" width="8.98697539797395"/><rect x="50.9261939218524" y="598.0519480519481" height="1.9480519480518979" width="8.98697539797395"/><rect x="370.4630969609262" y="598.6482137109753" height="0" width="8.98697539797395"/><rect x="380.44862518089724" y="595.8252802473908" height="4.174719752609235" width="8.98697539797395"/><rect x="60.911722141823454" y="598.9076464746772" height="1.0923535253227783" width="8.98697539797395"/><rect x="390.4341534008683" y="593.6772888214466" height="0" width="8.98697539797395"/><rect x="210.69464544138927" y="598.6917141898691" height="0" width="8.98697539797395"/><rect x="400.41968162083936" y="598.3324911571501" height="0" width="8.98697539797395"/><rect x="410.40520984081036" y="600" height="0" width="8.98697539797395"/><rect x="680.0144717800289" y="598.6749341714092" height="0" width="8.98697539797395"/><rect x="220.68017366136033" y="600" height="0" width="8.98697539797395"/><rect x="230.6657018813314" y="600" height="0" width="8.98697539797395"/><rect x="420.3907380607814" y="600" height="0" width="8.98697539797395"/><rect x="70.8972503617945" y="595.1146695616773" height="2.4426652191614266" width="8.98697539797395"/><rect x="80.88277858176556" y="596.800155143993" height="0" width="8.98697539797395"/><rect x="430.3762662807525" y="600" height="0" width="8.98697539797395"/><rect x="240.65123010130245" y="600" height="0" width="8.98697539797395"/><rect x="440.36179450072353" y="599.2030910408114" height="0" width="8.98697539797395"/><rect x="450.3473227206946" y="600" height="0" width="8.98697539797395"/><rect x="460.33285094066565" y="600" height="0" width="8.98697539797395"/><rect x="90.86830680173662" y="592.5117004680187" height="0" width="8.98697539797395"/><rect x="470.3183791606367" y="600" height="0" width="8.98697539797395"/><rect x="250.6367583212735" y="595.4831281551678" height="0" width="8.98697539797395"/><rect x="260.62228654124453" y="598.2421875" height="0" width="8.98697539797395"/><rect x="100.85383502170768" y="599.0136214185063" height="0.9863785814936818" width="8.98697539797395"/><rect x="480.30390738060777" y="600" height="0" width="8.98697539797395"/><rect x="490.2894356005788" y="600" height="0" width="8.98697539797395"/><rect x="270.6078147612156" y="597.7089520577005" height="0" width="8.98697539797395"/><rect x="500.2749638205499" y="600" height="0" width="8.98697539797395"/><rect x="510.26049204052094" y="600" height="0" width="8.98697539797395"/><rect x="520.246020260492" y="600" height="0" width="8.98697539797395"/><rect x="530.2315484804631" y="598.4263362575743" height="0" width="8.98697539797395"/><rect x="280.59334298118665" y="600" height="0" width="8.98697539797395"/><rect x="540.2170767004341" y="599.7934595524957" height="0" width="8.98697539797395"/><rect x="110.83936324167873" y="597.4365514602729" height="2.563448539727119" width="8.98697539797395"/><rect x="550.2026049204052" y="600" height="0" width="8.98697539797395"/><rect x="560.1881331403762" y="600" height="0" width="8.98697539797395"/><rect x="570.1736613603473" y="600" height="0" width="8.98697539797395"/><rect x="580.1591895803183" y="600" height="0" width="8.98697539797395"/><rect x="590.1447178002894" y="598.9551589029169" height="1.044841097083122" width="8.98697539797395"/><rect x="120.82489146164978" y="600" height="0" width="8.98697539797395"/><rect x="130.81041968162083" y="600" height="0" width="8.98697539797395"/><rect x="600.1302460202604" y="600" height="0" width="8.98697539797395"/><rect x="290.5788712011577" y="600" height="0" width="8.98697539797395"/><rect x="610.1157742402315" y="600" height="0" width="8.98697539797395"/><rect x="620.1013024602025" y="597.3122293564282" height="2.6877706435717528" width="8.98697539797395"/><rect x="630.0868306801736" y="600" height="0" width="8.98697539797395"/><rect x="300.56439942112877" y="594.770206022187" height="0" width="8.98697539797395"/></g><g class="layer" style="fill: rgb(190, 174, 212);"><rect x="140.7959479015919" y="0" height="14.165475623312659" width="8.98697539797395"/><rect x="640.0723589001446" y="0" height="6.125214563194504" width="8.98697539797395"/><rect x="650.0578871201157" y="0" height="3.38455553394283" width="8.98697539797395"/><rect x="660.0434153400868" y="45.89519650655029" height="22.838427947598234" width="8.98697539797395"/><rect x="670.0289435600578" y="61.80281172470825" height="7.167141413213244" width="8.98697539797395"/><rect x="150.78147612156295" y="128.05315614617945" height="414.69767441860466" width="8.98697539797395"/><rect x="0.9985528219971229" y="145.2592246613732" height="226.24941616067258" width="8.98697539797395"/><rect x="310.5499276410998" y="148.81889763779526" height="423.0708661417323" width="8.98697539797395"/><rect x="320.5354558610709" y="170.08954086492668" height="368.8702610020956" width="8.98697539797395"/><rect x="160.767004341534" y="171.83985605038237" height="409.4017094017094" width="8.98697539797395"/><rect x="170.75253256150506" y="175.4484547222823" height="95.18046250270152" width="8.98697539797395"/><rect x="330.52098408104195" y="193.41795956746586" height="186.78890456041376" width="8.98697539797395"/><rect x="340.506512301013" y="207.32512758931256" height="368.35785049534667" width="8.98697539797395"/><rect x="180.73806078147612" y="220.4232804232804" height="354.23280423280426" width="8.98697539797395"/><rect x="350.49204052098406" y="224.82863670982482" height="338.2482863670983" width="8.98697539797395"/><rect x="10.984081041968178" y="229.86342943854328" height="215.1138088012139" width="8.98697539797395"/><rect x="20.969609261939233" y="236.91756272401432" height="282.16845878136206" width="8.98697539797395"/><rect x="190.72358900144718" y="239.85408116735067" height="310.077519379845" width="8.98697539797395"/><rect x="30.95513748191029" y="253.35148009527046" height="286.219802653964" width="8.98697539797395"/><rect x="360.4775687409551" y="273.6790366183337" height="309.65839272548544" width="8.98697539797395"/><rect x="200.70911722141824" y="274.39626783754113" height="286.66300768386395" width="8.98697539797395"/><rect x="40.94066570188134" y="282.2200822901164" height="244.9269018646591" width="8.98697539797395"/><rect x="50.9261939218524" y="290.37433155080214" height="275.5920550038197" width="8.98697539797395"/><rect x="370.4630969609262" y="291.98583842935307" height="233.08657869327328" width="8.98697539797395"/><rect x="380.44862518089724" y="294.6076536528798" height="286.49014302280636" width="8.98697539797395"/><rect x="60.911722141823454" y="296.32571996027804" height="159.68222442899702" width="8.98697539797395"/><rect x="390.4341534008683" y="304.7040971168437" height="226.50480526049574" width="8.98697539797395"/><rect x="210.69464544138927" y="306.23951694062396" height="290.54008721905404" width="8.98697539797395"/><rect x="400.41968162083936" y="308.4133400707428" height="257.3269327943406" width="8.98697539797395"/><rect x="410.40520984081036" y="317.26858128928876" height="219.72143473437694" width="8.98697539797395"/><rect x="680.0144717800289" y="321.02267901129704" height="194.02021574789768" width="8.98697539797395"/><rect x="220.68017366136033" y="321.2750716332378" height="236.3896848137536" width="8.98697539797395"/><rect x="230.6657018813314" y="323.64864864864865" height="244.03153153153153" width="8.98697539797395"/><rect x="420.3907380607814" y="325.7810218978102" height="251.09489051094897" width="8.98697539797395"/><rect x="70.8972503617945" y="326.4214954539286" height="159.34319446329215" width="8.98697539797395"/><rect x="80.88277858176556" y="332.66750702996217" height="233.35595849898186" width="8.98697539797395"/><rect x="430.3762662807525" y="342.40553966581365" height="229.3241005569772" width="8.98697539797395"/><rect x="240.65123010130245" y="342.73587985635" height="237.74077701599737" width="8.98697539797395"/><rect x="440.36179450072353" y="342.8881912581502" height="227.48128471383723" width="8.98697539797395"/><rect x="450.3473227206946" y="344.8264462809918" height="226.6115702479338" width="8.98697539797395"/><rect x="460.33285094066565" y="349.60982898887596" height="219.55835962145113" width="8.98697539797395"/><rect x="90.86830680173662" y="354.8166926677067" height="190.8346333853354" width="8.98697539797395"/><rect x="470.3183791606367" y="355.9596952568199" height="217.79306955025805" width="8.98697539797395"/><rect x="250.6367583212735" y="356.8328757417412" height="138.5351164644407" width="8.98697539797395"/><rect x="260.62228654124453" y="357.9176682692308" height="210.35156249999994" width="8.98697539797395"/><rect x="100.85383502170768" y="367.7078440582433" height="195.86660403945513" width="8.98697539797395"/><rect x="480.30390738060777" y="377.0576131687243" height="201.80041152263368" width="8.98697539797395"/><rect x="490.2894356005788" y="377.91508869842534" height="152.36196930436512" width="8.98697539797395"/><rect x="270.6078147612156" y="380.41578277471365" height="142.65591854051752" width="8.98697539797395"/><rect x="500.2749638205499" y="380.95545513234345" height="198.32149774047775" width="8.98697539797395"/><rect x="510.26049204052094" y="385.7988165680473" height="199.7041420118344" width="8.98697539797395"/><rect x="520.246020260492" y="389.9130808026612" height="186.84408198304544" width="8.98697539797395"/><rect x="530.2315484804631" y="405.95098127882795" height="144.45147870127516" width="8.98697539797395"/><rect x="280.59334298118665" y="415.3551680136112" height="95.06592939174823" width="8.98697539797395"/><rect x="540.2170767004341" y="417.67641996557654" height="129.39759036144585" width="8.98697539797395"/><rect x="110.83936324167873" y="423.61943629639075" height="140.4157632954981" width="8.98697539797395"/><rect x="550.2026049204052" y="429.0722804770671" height="157.38413511566478" width="8.98697539797395"/><rect x="560.1881331403762" y="429.1158281798429" height="151.83018552565602" width="8.98697539797395"/><rect x="570.1736613603473" y="433.7862502534983" height="146.3800446156966" width="8.98697539797395"/><rect x="580.1591895803183" y="448.5333005350225" height="136.63366336633658" width="8.98697539797395"/><rect x="590.1447178002894" y="448.75925119721376" height="133.4349151066608" width="8.98697539797395"/><rect x="120.82489146164978" y="451.0659395141299" height="125.78086266732771" width="8.98697539797395"/><rect x="130.81041968162083" y="459.3720857942182" height="114.14361206092639" width="8.98697539797395"/><rect x="600.1302460202604" y="470.6487567876536" height="119.23406687625038" width="8.98697539797395"/><rect x="290.5788712011577" y="472.2203215874102" height="96.54464591173456" width="8.98697539797395"/><rect x="610.1157742402315" y="472.3490234228841" height="112.16044301429315" width="8.98697539797395"/><rect x="620.1013024602025" y="474.61549947737797" height="116.06689562490669" width="8.98697539797395"/><rect x="630.0868306801736" y="479.5914024260481" height="107.68248563524156" width="8.98697539797395"/><rect x="300.56439942112877" y="483.28050713153726" height="98.09825673534073" width="8.98697539797395"/></g><g class="layer" style="fill: rgb(102, 102, 102);"><rect x="140.7959479015919" y="597.7449579164681" height="0" width="8.98697539797395"/><rect x="640.0723589001446" y="600" height="0" width="8.98697539797395"/><rect x="650.0578871201157" y="600" height="0" width="8.98697539797395"/><rect x="660.0434153400868" y="600" height="0" width="8.98697539797395"/><rect x="670.0289435600578" y="600" height="0" width="8.98697539797395"/><rect x="150.78147612156295" y="593.2225913621262" height="0" width="8.98697539797395"/><rect x="0.9985528219971229" y="577.5805698271836" height="3.923400280242845" width="8.98697539797395"/><rect x="310.5499276410998" y="593.0314960629921" height="0" width="8.98697539797395"/><rect x="320.5354558610709" y="600" height="0" width="8.98697539797395"/><rect x="160.767004341534" y="594.1970310391363" height="0" width="8.98697539797395"/><rect x="170.75253256150506" y="582.105035660255" height="16.468554138750847" width="8.98697539797395"/><rect x="330.52098408104195" y="594.1231781852374" height="0" width="8.98697539797395"/><rect x="340.506512301013" y="586.0702491744221" height="0" width="8.98697539797395"/><rect x="180.73806078147612" y="586.0846560846561" height="4.761904761904702" width="8.98697539797395"/><rect x="350.49204052098406" y="584.8743335872049" height="14.166031987814108" width="8.98697539797395"/><rect x="10.984081041968178" y="597.5720789074355" height="0" width="8.98697539797395"/><rect x="20.969609261939233" y="570.6093189964158" height="19.265232974910305" width="8.98697539797395"/><rect x="190.72358900144718" y="565.344277245782" height="0.455996352029274" width="8.98697539797395"/><rect x="30.95513748191029" y="568.8669615515481" height="5.307927866621299" width="8.98697539797395"/><rect x="360.4775687409551" y="599.4839026787909" height="0" width="8.98697539797395"/><rect x="200.70911722141824" y="579.2535675082327" height="1.070252469813454" width="8.98697539797395"/><rect x="40.94066570188134" y="577.0988356823951" height="0" width="8.98697539797395"/><rect x="50.9261939218524" y="586.1344537815125" height="0" width="8.98697539797395"/><rect x="370.4630969609262" y="596.5239781139363" height="0" width="8.98697539797395"/><rect x="380.44862518089724" y="590.6648627754155" height="0" width="8.98697539797395"/><rect x="60.911722141823454" y="547.8649453823238" height="51.04270109235347" width="8.98697539797395"/><rect x="390.4341534008683" y="576.6818411734952" height="0" width="8.98697539797395"/><rect x="210.69464544138927" y="596.779604159678" height="0" width="8.98697539797395"/><rect x="400.41968162083936" y="580.9752400202123" height="0" width="8.98697539797395"/><rect x="410.40520984081036" y="595.9324540860348" height="2.736349069394805" width="8.98697539797395"/><rect x="680.0144717800289" y="571.6639768962881" height="14.11704748152556" width="8.98697539797395"/><rect x="220.68017366136033" y="578.8681948424069" height="21.131805157593135" width="8.98697539797395"/><rect x="230.6657018813314" y="583.3333333333334" height="15.87837837837833" width="8.98697539797395"/><rect x="420.3907380607814" y="598.948905109489" height="0" width="8.98697539797395"/><rect x="70.8972503617945" y="546.6684760483105" height="47.87623829556253" width="8.98697539797395"/><rect x="80.88277858176556" y="586.9679045864443" height="6.166973722486205" width="8.98697539797395"/><rect x="430.3762662807525" y="598.3742285112148" height="0" width="8.98697539797395"/><rect x="240.65123010130245" y="600" height="0" width="8.98697539797395"/><rect x="440.36179450072353" y="591.8135716010626" height="6.157932866457372" width="8.98697539797395"/><rect x="450.3473227206946" y="593.2561983471074" height="6.743801652892557" width="8.98697539797395"/><rect x="460.33285094066565" y="599.0536277602523" height="0" width="8.98697539797395"/><rect x="90.86830680173662" y="583.326833073323" height="0" width="8.98697539797395"/><rect x="470.3183791606367" y="597.4195133939543" height="0" width="8.98697539797395"/><rect x="250.6367583212735" y="532.7251793463821" height="61.85457443981932" width="8.98697539797395"/><rect x="260.62228654124453" y="590.625" height="6.084735576923094" width="8.98697539797395"/><rect x="100.85383502170768" y="584.429309534993" height="14.584311883513351" width="8.98697539797395"/><rect x="480.30390738060777" y="600" height="0" width="8.98697539797395"/><rect x="490.2894356005788" y="591.7480566075344" height="4.18576838748254" width="8.98697539797395"/><rect x="270.6078147612156" y="534.9342384386932" height="43.2753500212134" width="8.98697539797395"/><rect x="500.2749638205499" y="588.0568108457069" height="0" width="8.98697539797395"/><rect x="510.26049204052094" y="591.301775147929" height="7.751479289940789" width="8.98697539797395"/><rect x="520.246020260492" y="596.265693743964" height="3.0904603498229335" width="8.98697539797395"/><rect x="530.2315484804631" y="598.4263362575743" height="0" width="8.98697539797395"/><rect x="280.59334298118665" y="522.7350063802637" height="74.71288813270951" width="8.98697539797395"/><rect x="540.2170767004341" y="595.1462994836489" height="3.046471600688392" width="8.98697539797395"/><rect x="110.83936324167873" y="584.4662670577733" height="12.128555031245924" width="8.98697539797395"/><rect x="550.2026049204052" y="597.7907628271832" height="0" width="8.98697539797395"/><rect x="560.1881331403762" y="599.097442754471" height="0" width="8.98697539797395"/><rect x="570.1736613603473" y="594.0377205435003" height="5.962279456499687" width="8.98697539797395"/><rect x="580.1591895803183" y="599.188241805547" height="0" width="8.98697539797395"/><rect x="590.1447178002894" y="595.7335655202438" height="3.2215933826730634" width="8.98697539797395"/><rect x="120.82489146164978" y="586.0188398611799" height="11.65096678235011" width="8.98697539797395"/><rect x="130.81041968162083" y="599.8134908299658" height="0" width="8.98697539797395"/><rect x="600.1302460202604" y="600" height="0" width="8.98697539797395"/><rect x="290.5788712011577" y="580.6021211084502" height="18.200478959972656" width="8.98697539797395"/><rect x="610.1157742402315" y="597.5753947466886" height="0" width="8.98697539797395"/><rect x="620.1013024602025" y="596.4611019859639" height="0" width="8.98697539797395"/><rect x="630.0868306801736" y="599.2764417961268" height="0" width="8.98697539797395"/><rect x="300.56439942112877" y="587.7179080824088" height="7.052297939778214" width="8.98697539797395"/></g><g class="layer" style="fill: rgb(253, 192, 134);"><rect x="140.7959479015919" y="600" height="0" width="8.98697539797395"/><rect x="640.0723589001446" y="600" height="0" width="8.98697539797395"/><rect x="650.0578871201157" y="600" height="0" width="8.98697539797395"/><rect x="660.0434153400868" y="600" height="0" width="8.98697539797395"/><rect x="670.0289435600578" y="600" height="0" width="8.98697539797395"/><rect x="150.78147612156295" y="600" height="0" width="8.98697539797395"/><rect x="0.9985528219971229" y="600" height="0" width="8.98697539797395"/><rect x="310.5499276410998" y="600" height="0" width="8.98697539797395"/><rect x="320.5354558610709" y="600" height="0" width="8.98697539797395"/><rect x="160.767004341534" y="599.5051731893838" height="0.4948268106162459" width="8.98697539797395"/><rect x="170.75253256150506" y="600" height="0" width="8.98697539797395"/><rect x="330.52098408104195" y="600" height="0" width="8.98697539797395"/><rect x="340.506512301013" y="599.2794956469529" height="0.7205043530470903" width="8.98697539797395"/><rect x="180.73806078147612" y="600" height="0" width="8.98697539797395"/><rect x="350.49204052098406" y="600" height="0" width="8.98697539797395"/><rect x="10.984081041968178" y="600" height="0" width="8.98697539797395"/><rect x="20.969609261939233" y="600" height="0" width="8.98697539797395"/><rect x="190.72358900144718" y="598.9968080255358" height="1.0031919744642437" width="8.98697539797395"/><rect x="30.95513748191029" y="598.5709424974481" height="0" width="8.98697539797395"/><rect x="360.4775687409551" y="600" height="0" width="8.98697539797395"/><rect x="200.70911722141824" y="594.4017563117453" height="5.5982436882546835" width="8.98697539797395"/><rect x="40.94066570188134" y="593.9595552832005" height="6.04044471679947" width="8.98697539797395"/><rect x="50.9261939218524" y="600" height="0" width="8.98697539797395"/><rect x="370.4630969609262" y="600" height="0" width="8.98697539797395"/><rect x="380.44862518089724" y="600" height="0" width="8.98697539797395"/><rect x="60.911722141823454" y="600" height="0" width="8.98697539797395"/><rect x="390.4341534008683" y="597.0662620131512" height="0" width="8.98697539797395"/><rect x="210.69464544138927" y="598.6917141898691" height="1.308285810130883" width="8.98697539797395"/><rect x="400.41968162083936" y="600" height="0" width="8.98697539797395"/><rect x="410.40520984081036" y="600" height="0" width="8.98697539797395"/><rect x="680.0144717800289" y="598.6749341714092" height="0" width="8.98697539797395"/><rect x="220.68017366136033" y="600" height="0" width="8.98697539797395"/><rect x="230.6657018813314" y="600" height="0" width="8.98697539797395"/><rect x="420.3907380607814" y="600" height="0" width="8.98697539797395"/><rect x="70.8972503617945" y="600" height="0" width="8.98697539797395"/><rect x="80.88277858176556" y="600" height="0" width="8.98697539797395"/><rect x="430.3762662807525" y="600" height="0" width="8.98697539797395"/><rect x="240.65123010130245" y="600" height="0" width="8.98697539797395"/><rect x="440.36179450072353" y="599.2030910408114" height="0" width="8.98697539797395"/><rect x="450.3473227206946" y="600" height="0" width="8.98697539797395"/><rect x="460.33285094066565" y="600" height="0" width="8.98697539797395"/><rect x="90.86830680173662" y="592.5117004680187" height="7.4882995319812835" width="8.98697539797395"/><rect x="470.3183791606367" y="600" height="0" width="8.98697539797395"/><rect x="250.6367583212735" y="596.5990611991851" height="0" width="8.98697539797395"/><rect x="260.62228654124453" y="599.1436298076923" height="0.7211538461539249" width="8.98697539797395"/><rect x="100.85383502170768" y="600" height="0" width="8.98697539797395"/><rect x="480.30390738060777" y="600" height="0" width="8.98697539797395"/><rect x="490.2894356005788" y="600" height="0" width="8.98697539797395"/><rect x="270.6078147612156" y="597.7089520577005" height="0.2545608824777901" width="8.98697539797395"/><rect x="500.2749638205499" y="600" height="0" width="8.98697539797395"/><rect x="510.26049204052094" y="600" height="0" width="8.98697539797395"/><rect x="520.246020260492" y="600" height="0" width="8.98697539797395"/><rect x="530.2315484804631" y="600" height="0" width="8.98697539797395"/><rect x="280.59334298118665" y="600" height="0" width="8.98697539797395"/><rect x="540.2170767004341" y="600" height="0" width="8.98697539797395"/><rect x="110.83936324167873" y="600" height="0" width="8.98697539797395"/><rect x="550.2026049204052" y="600" height="0" width="8.98697539797395"/><rect x="560.1881331403762" y="600" height="0" width="8.98697539797395"/><rect x="570.1736613603473" y="600" height="0" width="8.98697539797395"/><rect x="580.1591895803183" y="600" height="0" width="8.98697539797395"/><rect x="590.1447178002894" y="600" height="0" width="8.98697539797395"/><rect x="120.82489146164978" y="600" height="0" width="8.98697539797395"/><rect x="130.81041968162083" y="600" height="0" width="8.98697539797395"/><rect x="600.1302460202604" y="600" height="0" width="8.98697539797395"/><rect x="290.5788712011577" y="600" height="0" width="8.98697539797395"/><rect x="610.1157742402315" y="600" height="0" width="8.98697539797395"/><rect x="620.1013024602025" y="600" height="0" width="8.98697539797395"/><rect x="630.0868306801736" y="600" height="0" width="8.98697539797395"/><rect x="300.56439942112877" y="595.4833597464342" height="0" width="8.98697539797395"/></g><g class="layer" style="fill: rgb(127, 201, 127);"><rect x="140.7959479015919" y="14.165475623312659" height="583.5794822931555" width="8.98697539797395"/><rect x="640.0723589001446" y="6.125214563194504" height="593.8747854368055" width="8.98697539797395"/><rect x="650.0578871201157" y="3.38455553394283" height="596.6154444660572" width="8.98697539797395"/><rect x="660.0434153400868" y="68.73362445414853" height="531.2663755458515" width="8.98697539797395"/><rect x="670.0289435600578" y="68.9699531379215" height="531.0300468620785" width="8.98697539797395"/><rect x="150.78147612156295" y="542.7508305647841" height="50.471760797342085" width="8.98697539797395"/><rect x="0.9985528219971229" y="371.5086408220458" height="206.0719290051378" width="8.98697539797395"/><rect x="310.5499276410998" y="571.8897637795276" height="21.141732283464535" width="8.98697539797395"/><rect x="320.5354558610709" y="538.9598018670223" height="61.04019813297771" width="8.98697539797395"/><rect x="160.767004341534" y="581.2415654520918" height="12.9554655870445" width="8.98697539797395"/><rect x="170.75253256150506" y="270.6289172249838" height="311.4761184352712" width="8.98697539797395"/><rect x="330.52098408104195" y="380.2068641278796" height="213.9163140573578" width="8.98697539797395"/><rect x="340.506512301013" y="575.6829780846592" height="10.387271089762862" width="8.98697539797395"/><rect x="180.73806078147612" y="574.6560846560847" height="11.428571428571445" width="8.98697539797395"/><rect x="350.49204052098406" y="563.0769230769231" height="21.797410510281793" width="8.98697539797395"/><rect x="10.984081041968178" y="444.9772382397572" height="152.59484066767834" width="8.98697539797395"/><rect x="20.969609261939233" y="519.0860215053764" height="51.52329749103944" width="8.98697539797395"/><rect x="190.72358900144718" y="549.9316005471957" height="15.412676698586324" width="8.98697539797395"/><rect x="30.95513748191029" y="539.5712827492345" height="29.29567880231366" width="8.98697539797395"/><rect x="360.4775687409551" y="583.3374293438192" height="16.146473334971688" width="8.98697539797395"/><rect x="200.70911722141824" y="561.0592755214051" height="18.19429198682758" width="8.98697539797395"/><rect x="40.94066570188134" y="527.1469841547755" height="49.951851527619624" width="8.98697539797395"/><rect x="50.9261939218524" y="565.9663865546219" height="20.168067226890685" width="8.98697539797395"/><rect x="370.4630969609262" y="525.0724171226263" height="71.45156099130998" width="8.98697539797395"/><rect x="380.44862518089724" y="581.0977966756861" height="9.567066099729345" width="8.98697539797395"/><rect x="60.911722141823454" y="456.00794438927505" height="91.8570009930487" width="8.98697539797395"/><rect x="390.4341534008683" y="531.2089023773394" height="45.472938796155745" width="8.98697539797395"/><rect x="210.69464544138927" y="596.779604159678" height="0" width="8.98697539797395"/><rect x="400.41968162083936" y="565.7402728650834" height="15.234967155128857" width="8.98697539797395"/><rect x="410.40520984081036" y="536.9900160236657" height="58.94243806236909" width="8.98697539797395"/><rect x="680.0144717800289" y="515.0428947591947" height="56.62108213709337" width="8.98697539797395"/><rect x="220.68017366136033" y="557.6647564469914" height="21.203438395415446" width="8.98697539797395"/><rect x="230.6657018813314" y="567.6801801801802" height="15.653153153153198" width="8.98697539797395"/><rect x="420.3907380607814" y="576.8759124087592" height="22.072992700729856" width="8.98697539797395"/><rect x="70.8972503617945" y="485.7646899172208" height="60.9037861310897" width="8.98697539797395"/><rect x="80.88277858176556" y="566.023465528944" height="20.94443905750029" width="8.98697539797395"/><rect x="430.3762662807525" y="571.7296402227909" height="26.64458828842396" width="8.98697539797395"/><rect x="240.65123010130245" y="580.4766568723473" height="19.52334312765265" width="8.98697539797395"/><rect x="440.36179450072353" y="570.3694759719874" height="21.44409562907515" width="8.98697539797395"/><rect x="450.3473227206946" y="571.4380165289256" height="21.81818181818187" width="8.98697539797395"/><rect x="460.33285094066565" y="569.1681886103271" height="29.88543914992522" width="8.98697539797395"/><rect x="90.86830680173662" y="545.6513260530421" height="37.67550702028086" width="8.98697539797395"/><rect x="470.3183791606367" y="573.7527648070779" height="23.666748586876338" width="8.98697539797395"/><rect x="250.6367583212735" y="495.3679922061819" height="37.35718714020021" width="8.98697539797395"/><rect x="260.62228654124453" y="568.2692307692307" height="22.355769230769283" width="8.98697539797395"/><rect x="100.85383502170768" y="563.5744480976985" height="20.854861437294517" width="8.98697539797395"/><rect x="480.30390738060777" y="578.858024691358" height="21.14197530864203" width="8.98697539797395"/><rect x="490.2894356005788" y="530.2770580027905" height="61.470998604743954" width="8.98697539797395"/><rect x="270.6078147612156" y="523.0717013152312" height="11.862537123462062" width="8.98697539797395"/><rect x="500.2749638205499" y="579.2769528728212" height="8.77985797288568" width="8.98697539797395"/><rect x="510.26049204052094" y="585.5029585798817" height="5.7988165680473" width="8.98697539797395"/><rect x="520.246020260492" y="576.7571627857067" height="19.508530958257325" width="8.98697539797395"/><rect x="530.2315484804631" y="550.4024599801031" height="48.02387627747123" width="8.98697539797395"/><rect x="280.59334298118665" y="510.42109740535943" height="12.31390897490428" width="8.98697539797395"/><rect x="540.2170767004341" y="547.0740103270224" height="48.07228915662654" width="8.98697539797395"/><rect x="110.83936324167873" y="564.0351995918888" height="20.43106746588444" width="8.98697539797395"/><rect x="550.2026049204052" y="586.4564155927319" height="11.334347234451343" width="8.98697539797395"/><rect x="560.1881331403762" y="580.9460137054989" height="18.15142904897209" width="8.98697539797395"/><rect x="570.1736613603473" y="580.1662948691949" height="13.871425674305442" width="8.98697539797395"/><rect x="580.1591895803183" y="585.166963901359" height="14.021277904187968" width="8.98697539797395"/><rect x="590.1447178002894" y="582.1941663038746" height="13.539399216369247" width="8.98697539797395"/><rect x="120.82489146164978" y="576.8468021814576" height="9.17203767972228" width="8.98697539797395"/><rect x="130.81041968162083" y="573.5156978551446" height="26.297792974821164" width="8.98697539797395"/><rect x="600.1302460202604" y="589.882823663904" height="10.117176336096009" width="8.98697539797395"/><rect x="290.5788712011577" y="568.7649674991447" height="11.83715360930546" width="8.98697539797395"/><rect x="610.1157742402315" y="584.5094664371773" height="13.065928309511378" width="8.98697539797395"/><rect x="620.1013024602025" y="590.6823951022847" height="5.778706883679206" width="8.98697539797395"/><rect x="630.0868306801736" y="587.2738880612897" height="12.002553734837193" width="8.98697539797395"/><rect x="300.56439942112877" y="581.378763866878" height="6.339144215530837" width="8.98697539797395"/></g><g class="layer" style="fill: rgb(255, 255, 153);"><rect x="140.7959479015919" y="600" height="0" width="8.98697539797395"/><rect x="640.0723589001446" y="600" height="0" width="8.98697539797395"/><rect x="650.0578871201157" y="600" height="0" width="8.98697539797395"/><rect x="660.0434153400868" y="600" height="0" width="8.98697539797395"/><rect x="670.0289435600578" y="600" height="0" width="8.98697539797395"/><rect x="150.78147612156295" y="600" height="0" width="8.98697539797395"/><rect x="0.9985528219971229" y="582.4381130312938" height="17.561886968706176" width="8.98697539797395"/><rect x="310.5499276410998" y="600" height="0" width="8.98697539797395"/><rect x="320.5354558610709" y="600" height="0" width="8.98697539797395"/><rect x="160.767004341534" y="598.110661268556" height="1.3945119208277674" width="8.98697539797395"/><rect x="170.75253256150506" y="600" height="0" width="8.98697539797395"/><rect x="330.52098408104195" y="600" height="0" width="8.98697539797395"/><rect x="340.506512301013" y="599.2794956469529" height="0" width="8.98697539797395"/><rect x="180.73806078147612" y="600" height="0" width="8.98697539797395"/><rect x="350.49204052098406" y="600" height="0" width="8.98697539797395"/><rect x="10.984081041968178" y="600" height="0" width="8.98697539797395"/><rect x="20.969609261939233" y="598.4767025089606" height="1.5232974910394432" width="8.98697539797395"/><rect x="190.72358900144718" y="598.9968080255358" height="0" width="8.98697539797395"/><rect x="30.95513748191029" y="598.5709424974481" height="0" width="8.98697539797395"/><rect x="360.4775687409551" y="600" height="0" width="8.98697539797395"/><rect x="200.70911722141824" y="593.0021953896817" height="1.3995609220636425" width="8.98697539797395"/><rect x="40.94066570188134" y="593.9595552832005" height="0" width="8.98697539797395"/><rect x="50.9261939218524" y="600" height="0" width="8.98697539797395"/><rect x="370.4630969609262" y="598.6482137109753" height="1.3517862890247443" width="8.98697539797395"/><rect x="380.44862518089724" y="600" height="0" width="8.98697539797395"/><rect x="60.911722141823454" y="600" height="0" width="8.98697539797395"/><rect x="390.4341534008683" y="593.6772888214466" height="3.388973191704622" width="8.98697539797395"/><rect x="210.69464544138927" y="598.6917141898691" height="0" width="8.98697539797395"/><rect x="400.41968162083936" y="598.3324911571501" height="1.6675088428498839" width="8.98697539797395"/><rect x="410.40520984081036" y="600" height="0" width="8.98697539797395"/><rect x="680.0144717800289" y="598.6749341714092" height="0" width="8.98697539797395"/><rect x="220.68017366136033" y="600" height="0" width="8.98697539797395"/><rect x="230.6657018813314" y="600" height="0" width="8.98697539797395"/><rect x="420.3907380607814" y="600" height="0" width="8.98697539797395"/><rect x="70.8972503617945" y="597.5573347808387" height="2.442665219161313" width="8.98697539797395"/><rect x="80.88277858176556" y="596.800155143993" height="3.199844856006962" width="8.98697539797395"/><rect x="430.3762662807525" y="600" height="0" width="8.98697539797395"/><rect x="240.65123010130245" y="600" height="0" width="8.98697539797395"/><rect x="440.36179450072353" y="599.2030910408114" height="0" width="8.98697539797395"/><rect x="450.3473227206946" y="600" height="0" width="8.98697539797395"/><rect x="460.33285094066565" y="600" height="0" width="8.98697539797395"/><rect x="90.86830680173662" y="592.5117004680187" height="0" width="8.98697539797395"/><rect x="470.3183791606367" y="600" height="0" width="8.98697539797395"/><rect x="250.6367583212735" y="595.4831281551678" height="1.1159330440173107" width="8.98697539797395"/><rect x="260.62228654124453" y="598.2421875" height="0.901442307692264" width="8.98697539797395"/><rect x="100.85383502170768" y="600" height="0" width="8.98697539797395"/><rect x="480.30390738060777" y="600" height="0" width="8.98697539797395"/><rect x="490.2894356005788" y="600" height="0" width="8.98697539797395"/><rect x="270.6078147612156" y="597.7089520577005" height="0" width="8.98697539797395"/><rect x="500.2749638205499" y="600" height="0" width="8.98697539797395"/><rect x="510.26049204052094" y="600" height="0" width="8.98697539797395"/><rect x="520.246020260492" y="600" height="0" width="8.98697539797395"/><rect x="530.2315484804631" y="598.4263362575743" height="1.5736637424256514" width="8.98697539797395"/><rect x="280.59334298118665" y="600" height="0" width="8.98697539797395"/><rect x="540.2170767004341" y="599.7934595524957" height="0.20654044750426692" width="8.98697539797395"/><rect x="110.83936324167873" y="600" height="0" width="8.98697539797395"/><rect x="550.2026049204052" y="600" height="0" width="8.98697539797395"/><rect x="560.1881331403762" y="600" height="0" width="8.98697539797395"/><rect x="570.1736613603473" y="600" height="0" width="8.98697539797395"/><rect x="580.1591895803183" y="600" height="0" width="8.98697539797395"/><rect x="590.1447178002894" y="600" height="0" width="8.98697539797395"/><rect x="120.82489146164978" y="600" height="0" width="8.98697539797395"/><rect x="130.81041968162083" y="600" height="0" width="8.98697539797395"/><rect x="600.1302460202604" y="600" height="0" width="8.98697539797395"/><rect x="290.5788712011577" y="600" height="0" width="8.98697539797395"/><rect x="610.1157742402315" y="600" height="0" width="8.98697539797395"/><rect x="620.1013024602025" y="600" height="0" width="8.98697539797395"/><rect x="630.0868306801736" y="600" height="0" width="8.98697539797395"/><rect x="300.56439942112877" y="594.770206022187" height="0.7131537242471495" width="8.98697539797395"/></g><g class="layer" style="fill: rgb(191, 91, 23);"><rect x="140.7959479015919" y="597.7449579164681" height="0" width="8.98697539797395"/><rect x="640.0723589001446" y="600" height="0" width="8.98697539797395"/><rect x="650.0578871201157" y="600" height="0" width="8.98697539797395"/><rect x="660.0434153400868" y="600" height="0" width="8.98697539797395"/><rect x="670.0289435600578" y="600" height="0" width="8.98697539797395"/><rect x="150.78147612156295" y="593.2225913621262" height="0" width="8.98697539797395"/><rect x="0.9985528219971229" y="581.5039701074264" height="0" width="8.98697539797395"/><rect x="310.5499276410998" y="593.0314960629921" height="6.968503937007881" width="8.98697539797395"/><rect x="320.5354558610709" y="600" height="0" width="8.98697539797395"/><rect x="160.767004341534" y="594.1970310391363" height="0" width="8.98697539797395"/><rect x="170.75253256150506" y="598.5735897990058" height="0" width="8.98697539797395"/><rect x="330.52098408104195" y="594.1231781852374" height="2.021626704278333" width="8.98697539797395"/><rect x="340.506512301013" y="586.0702491744221" height="12.068447913539444" width="8.98697539797395"/><rect x="180.73806078147612" y="590.8465608465608" height="4.497354497354536" width="8.98697539797395"/><rect x="350.49204052098406" y="599.040365575019" height="0" width="8.98697539797395"/><rect x="10.984081041968178" y="597.5720789074355" height="0" width="8.98697539797395"/><rect x="20.969609261939233" y="589.8745519713261" height="0" width="8.98697539797395"/><rect x="190.72358900144718" y="565.8002735978113" height="27.906976744185954" width="8.98697539797395"/><rect x="30.95513748191029" y="574.1748894181694" height="0" width="8.98697539797395"/><rect x="360.4775687409551" y="599.4839026787909" height="0" width="8.98697539797395"/><rect x="200.70911722141824" y="580.3238199780461" height="10.373216245883668" width="8.98697539797395"/><rect x="40.94066570188134" y="577.0988356823951" height="12.028363827365865" width="8.98697539797395"/><rect x="50.9261939218524" y="586.1344537815125" height="9.969442322383543" width="8.98697539797395"/><rect x="370.4630969609262" y="596.5239781139363" height="0" width="8.98697539797395"/><rect x="380.44862518089724" y="590.6648627754155" height="4.11673753382297" width="8.98697539797395"/><rect x="60.911722141823454" y="598.9076464746772" height="0" width="8.98697539797395"/><rect x="390.4341534008683" y="576.6818411734952" height="14.820435002529052" width="8.98697539797395"/><rect x="210.69464544138927" y="596.779604159678" height="0" width="8.98697539797395"/><rect x="400.41968162083936" y="580.9752400202123" height="10.838807478524473" width="8.98697539797395"/><rect x="410.40520984081036" y="598.6688031554296" height="0" width="8.98697539797395"/><rect x="680.0144717800289" y="585.7810243778137" height="0" width="8.98697539797395"/><rect x="220.68017366136033" y="600" height="0" width="8.98697539797395"/><rect x="230.6657018813314" y="599.2117117117117" height="0" width="8.98697539797395"/><rect x="420.3907380607814" y="598.948905109489" height="0" width="8.98697539797395"/><rect x="70.8972503617945" y="594.544714343873" height="0" width="8.98697539797395"/><rect x="80.88277858176556" y="593.1348783089305" height="0" width="8.98697539797395"/><rect x="430.3762662807525" y="598.3742285112148" height="0" width="8.98697539797395"/><rect x="240.65123010130245" y="600" height="0" width="8.98697539797395"/><rect x="440.36179450072353" y="597.9715044675199" height="0" width="8.98697539797395"/><rect x="450.3473227206946" y="600" height="0" width="8.98697539797395"/><rect x="460.33285094066565" y="599.0536277602523" height="0" width="8.98697539797395"/><rect x="90.86830680173662" y="583.326833073323" height="9.184867394695743" width="8.98697539797395"/><rect x="470.3183791606367" y="597.4195133939543" height="0" width="8.98697539797395"/><rect x="250.6367583212735" y="594.5797537862014" height="0" width="8.98697539797395"/><rect x="260.62228654124453" y="596.7097355769231" height="0" width="8.98697539797395"/><rect x="100.85383502170768" y="599.0136214185063" height="0" width="8.98697539797395"/><rect x="480.30390738060777" y="600" height="0" width="8.98697539797395"/><rect x="490.2894356005788" y="595.933824995017" height="0" width="8.98697539797395"/><rect x="270.6078147612156" y="578.2095884599066" height="17.15740347899873" width="8.98697539797395"/><rect x="500.2749638205499" y="588.0568108457069" height="11.233053582956813" width="8.98697539797395"/><rect x="510.26049204052094" y="599.0532544378698" height="0" width="8.98697539797395"/><rect x="520.246020260492" y="599.3561540937869" height="0" width="8.98697539797395"/><rect x="530.2315484804631" y="598.4263362575743" height="0" width="8.98697539797395"/><rect x="280.59334298118665" y="597.4478945129732" height="2.1692896639727905" width="8.98697539797395"/><rect x="540.2170767004341" y="598.1927710843373" height="0" width="8.98697539797395"/><rect x="110.83936324167873" y="596.5948220890192" height="0" width="8.98697539797395"/><rect x="550.2026049204052" y="597.7907628271832" height="0.7684303209797463" width="8.98697539797395"/><rect x="560.1881331403762" y="599.097442754471" height="0" width="8.98697539797395"/><rect x="570.1736613603473" y="600" height="0" width="8.98697539797395"/><rect x="580.1591895803183" y="599.188241805547" height="0.18449049873925105" width="8.98697539797395"/><rect x="590.1447178002894" y="598.9551589029169" height="0" width="8.98697539797395"/><rect x="120.82489146164978" y="597.66980664353" height="0" width="8.98697539797395"/><rect x="130.81041968162083" y="599.8134908299658" height="0" width="8.98697539797395"/><rect x="600.1302460202604" y="600" height="0" width="8.98697539797395"/><rect x="290.5788712011577" y="598.8026000684229" height="0.273691412931953" width="8.98697539797395"/><rect x="610.1157742402315" y="597.5753947466886" height="0" width="8.98697539797395"/><rect x="620.1013024602025" y="596.4611019859639" height="0.8511273704643827" width="8.98697539797395"/><rect x="630.0868306801736" y="599.2764417961268" height="0" width="8.98697539797395"/><rect x="300.56439942112877" y="594.770206022187" height="0" width="8.98697539797395"/></g><g class="layer" style="fill: rgb(190, 174, 212);"><rect x="140.7959479015919" y="600" height="0" width="8.98697539797395"/><rect x="640.0723589001446" y="600" height="0" width="8.98697539797395"/><rect x="650.0578871201157" y="600" height="0" width="8.98697539797395"/><rect x="660.0434153400868" y="600" height="0" width="8.98697539797395"/><rect x="670.0289435600578" y="600" height="0" width="8.98697539797395"/><rect x="150.78147612156295" y="600" height="0" width="8.98697539797395"/><rect x="0.9985528219971229" y="600" height="0" width="8.98697539797395"/><rect x="310.5499276410998" y="600" height="0" width="8.98697539797395"/><rect x="320.5354558610709" y="600" height="0" width="8.98697539797395"/><rect x="160.767004341534" y="600" height="0" width="8.98697539797395"/><rect x="170.75253256150506" y="600" height="0" width="8.98697539797395"/><rect x="330.52098408104195" y="600" height="0" width="8.98697539797395"/><rect x="340.506512301013" y="600" height="0" width="8.98697539797395"/><rect x="180.73806078147612" y="600" height="0" width="8.98697539797395"/><rect x="350.49204052098406" y="600" height="0" width="8.98697539797395"/><rect x="10.984081041968178" y="600" height="0" width="8.98697539797395"/><rect x="20.969609261939233" y="600" height="0" width="8.98697539797395"/><rect x="190.72358900144718" y="600" height="0" width="8.98697539797395"/><rect x="30.95513748191029" y="598.5709424974481" height="1.4290575025519274" width="8.98697539797395"/><rect x="360.4775687409551" y="600" height="0" width="8.98697539797395"/><rect x="200.70911722141824" y="600" height="0" width="8.98697539797395"/><rect x="40.94066570188134" y="600" height="0" width="8.98697539797395"/><rect x="50.9261939218524" y="600" height="0" width="8.98697539797395"/><rect x="370.4630969609262" y="600" height="0" width="8.98697539797395"/><rect x="380.44862518089724" y="600" height="0" width="8.98697539797395"/><rect x="60.911722141823454" y="600" height="0" width="8.98697539797395"/><rect x="390.4341534008683" y="597.0662620131512" height="0" width="8.98697539797395"/><rect x="210.69464544138927" y="600" height="0" width="8.98697539797395"/><rect x="400.41968162083936" y="600" height="0" width="8.98697539797395"/><rect x="410.40520984081036" y="600" height="0" width="8.98697539797395"/><rect x="680.0144717800289" y="598.6749341714092" height="1.325065828590823" width="8.98697539797395"/><rect x="220.68017366136033" y="600" height="0" width="8.98697539797395"/><rect x="230.6657018813314" y="600" height="0" width="8.98697539797395"/><rect x="420.3907380607814" y="600" height="0" width="8.98697539797395"/><rect x="70.8972503617945" y="600" height="0" width="8.98697539797395"/><rect x="80.88277858176556" y="600" height="0" width="8.98697539797395"/><rect x="430.3762662807525" y="600" height="0" width="8.98697539797395"/><rect x="240.65123010130245" y="600" height="0" width="8.98697539797395"/><rect x="440.36179450072353" y="599.2030910408114" height="0.7969089591886132" width="8.98697539797395"/><rect x="450.3473227206946" y="600" height="0" width="8.98697539797395"/><rect x="460.33285094066565" y="600" height="0" width="8.98697539797395"/><rect x="90.86830680173662" y="600" height="0" width="8.98697539797395"/><rect x="470.3183791606367" y="600" height="0" width="8.98697539797395"/><rect x="250.6367583212735" y="596.5990611991851" height="3.4009388008148562" width="8.98697539797395"/><rect x="260.62228654124453" y="599.8647836538462" height="0.13521634615381117" width="8.98697539797395"/><rect x="100.85383502170768" y="600" height="0" width="8.98697539797395"/><rect x="480.30390738060777" y="600" height="0" width="8.98697539797395"/><rect x="490.2894356005788" y="600" height="0" width="8.98697539797395"/><rect x="270.6078147612156" y="597.9635129401782" height="0" width="8.98697539797395"/><rect x="500.2749638205499" y="600" height="0" width="8.98697539797395"/><rect x="510.26049204052094" y="600" height="0" width="8.98697539797395"/><rect x="520.246020260492" y="600" height="0" width="8.98697539797395"/><rect x="530.2315484804631" y="600" height="0" width="8.98697539797395"/><rect x="280.59334298118665" y="600" height="0" width="8.98697539797395"/><rect x="540.2170767004341" y="600" height="0" width="8.98697539797395"/><rect x="110.83936324167873" y="600" height="0" width="8.98697539797395"/><rect x="550.2026049204052" y="600" height="0" width="8.98697539797395"/><rect x="560.1881331403762" y="600" height="0" width="8.98697539797395"/><rect x="570.1736613603473" y="600" height="0" width="8.98697539797395"/><rect x="580.1591895803183" y="600" height="0" width="8.98697539797395"/><rect x="590.1447178002894" y="600" height="0" width="8.98697539797395"/><rect x="120.82489146164978" y="600" height="0" width="8.98697539797395"/><rect x="130.81041968162083" y="600" height="0" width="8.98697539797395"/><rect x="600.1302460202604" y="600" height="0" width="8.98697539797395"/><rect x="290.5788712011577" y="600" height="0" width="8.98697539797395"/><rect x="610.1157742402315" y="600" height="0" width="8.98697539797395"/><rect x="620.1013024602025" y="600" height="0" width="8.98697539797395"/><rect x="630.0868306801736" y="600" height="0" width="8.98697539797395"/><rect x="300.56439942112877" y="595.4833597464342" height="4.516640253565811" width="8.98697539797395"/></g></g></svg>